<svg id="Isolation_Mode" data-name="Isolation Mode" xmlns="http://www.w3.org/2000/svg" viewBox="0 0 79.38 79.38"><defs><style>.cls-1{fill:#fff;}</style></defs><path class="cls-1" d="M9.36,70a8.29,8.29,0,0,1-6,.76A7.48,7.48,0,0,1,.1,68.87a.56.56,0,0,1,0-.52A82.84,82.84,0,0,1,6.48,56.77,147.1,147.1,0,0,1,19.9,39.34,172.87,172.87,0,0,1,52.1,10.67a75.92,75.92,0,0,1,17.08-9A23,23,0,0,1,77.69,0c1.92.07,1.61-.22,1.68,1.62a23.52,23.52,0,0,1-1.8,9.07A80.21,80.21,0,0,1,68,28.31a161.61,161.61,0,0,1-17.36,21A168.73,168.73,0,0,1,24.44,71.69a86.33,86.33,0,0,1-13.38,7.63.69.69,0,0,1-.64-.14,7.6,7.6,0,0,1-1.26-8.72Zm0-2.15.08.1a23.13,23.13,0,0,0,3.72-2.52q14.13-14,28.14-28.08L74.21,4.43C75.08,3.56,76,2.7,77,1.71c-.82.14-1.45,0-2,.52Q55.1,22.12,35.22,42L13.61,63.59ZM77.62,2.53a3.37,3.37,0,0,0-.26.25l-39,39q-11,11-22,22a24.45,24.45,0,0,0-4.68,5.9l-.23.44.4-.37,32-32q16.52-16.51,33-33A2.61,2.61,0,0,0,77.62,2.53ZM19.28,42.69C32.09,28.6,46.06,15.91,62.78,6.51,45.52,15.25,31.53,27.93,19.28,42.69Zm4.36,27.9A135.89,135.89,0,0,0,45.52,52.14Z"/><path class="cls-1" d="M69.92,70a8.79,8.79,0,0,1,1,4.68,7.38,7.38,0,0,1-2.18,4.61.61.61,0,0,1-.5,0,85.77,85.77,0,0,1-11.81-6.59A148.93,148.93,0,0,1,40.5,60.59l-.21-.19c.39-.35.76-.69,1.15-1a.32.32,0,0,1,.29,0,7.4,7.4,0,0,0,1,.69l-1-1c1-1,2.1-1.92,3.13-2.9Q47,54.18,49.15,52c.27-.26.39-.23.64,0L67.53,69.82a.52.52,0,0,0,.33.17,22.86,22.86,0,0,0-2.45-3.68c-4.92-5.05-9.94-10-14.94-15-.45-.44,0-.54.17-.78s.39-.18.59,0c5,5,9.94,10,15,14.94A15.94,15.94,0,0,0,70,67.85l-3-3-15-15c-.25-.25-.23-.36,0-.61Q55.2,45.65,58.47,42c.23-.26.33-.26.54,0q5.67,6.88,11.36,13.76l.29.34c-.11-.23-.14-.31-.18-.37a131.87,131.87,0,0,0-11-14.06c-.32-.37-.32-.57,0-.91.59-.63.57-.65,1.13,0A133.24,133.24,0,0,1,76.23,62.44c1.09,1.92,2,3.92,3,5.9a.63.63,0,0,1-.11.58,7.54,7.54,0,0,1-8.46,1.44C70.45,70.28,70.24,70.17,69.92,70Z"/><path class="cls-1" d="M2.46,1.83l5,5Q18.13,17.49,28.82,28.16c.32.31.18.46-.05.66s-.34.47-.7.11Q15.05,15.86,2,2.84L1.64,2.5c.07.79,0,1.44.6,2.05Q14.81,17.06,27.35,29.62c.22.23.26.34,0,.58-2.26,2.32-4.5,4.65-6.78,7A151.71,151.71,0,0,1,6.44,16.74C7,17.8,7.55,18.87,8.12,19.92A116.37,116.37,0,0,0,20,37.53.49.49,0,0,1,20,38c-.22.29-.49.55-.78.86-.79-1-1.58-1.95-2.35-2.93A114.05,114.05,0,0,1,4.45,17,40.59,40.59,0,0,1,.22,5.24,33.62,33.62,0,0,1,0,.53.63.63,0,0,1,.41.1,21,21,0,0,1,9.66,1.48,71.55,71.55,0,0,1,25,9.22,140.8,140.8,0,0,1,38.72,19.3c.22.18.23.26,0,.46q-4.3,3.84-8.57,7.72c-.27.25-.4.21-.64,0Q16.92,14.82,4.27,2.23a4.65,4.65,0,0,0-1.71-.64Z"/></svg>